<?xml version="1.0" encoding="utf-8"?>
<!-- Generator: Adobe Illustrator 19.1.0, SVG Export Plug-In . SVG Version: 6.00 Build 0)  -->
<svg version="1.1" id="Layer_1" xmlns="http://www.w3.org/2000/svg" xmlns:xlink="http://www.w3.org/1999/xlink" x="0px" y="0px"
	 viewBox="497.38 338.54 203.23 471.3" enable-background="new 497.38 338.54 203.23 471.3" xml:space="preserve">
<g>
	<g>
		<path fill="#231F20" d="M566.84,444.66c-1.61,0-2.93-1.23-2.93-2.74s1.32-2.75,2.93-2.75c1.6,0,2.93,1.23,2.93,2.75
			S568.44,444.66,566.84,444.66z"/>
		<path fill="#231F20" d="M566.84,440c1.13,0,2.02,0.85,2.02,1.91c0,1.05-0.9,1.9-2.02,1.9s-2.02-0.85-2.02-1.9
			C564.82,440.85,565.72,440,566.84,440 M566.84,438.32c-2.12,0-3.83,1.6-3.83,3.59c0,1.98,1.71,3.58,3.83,3.58
			c2.11,0,3.84-1.6,3.84-3.58C570.68,439.93,568.95,438.32,566.84,438.32L566.84,438.32z"/>
	</g>
	<g>
		<path fill="#231F20" d="M626.88,444.66c-1.6,0-2.91-1.23-2.91-2.74s1.31-2.75,2.91-2.75c1.61,0,2.92,1.23,2.92,2.75
			S628.49,444.66,626.88,444.66z"/>
		<path fill="#231F20" d="M626.88,440c1.13,0,2.03,0.85,2.03,1.91c0,1.05-0.9,1.9-2.03,1.9c-1.11,0-2.02-0.85-2.02-1.9
			C624.86,440.85,625.77,440,626.88,440 M626.88,438.32c-2.1,0-3.83,1.6-3.83,3.59c0,1.98,1.73,3.58,3.83,3.58
			c2.12,0,3.83-1.6,3.83-3.58C630.71,439.93,629,438.32,626.88,438.32L626.88,438.32z"/>
	</g>
	<path fill="#231F20" d="M682.56,390.19c0,0,2.72-4.15,10.5-2.15c-4.72-8.66-44.09-36.01-63.96-39.37c-0.65-1.74,4.63-2.1,2.62-2.82
		c-6.55-2.3-24.62-0.9-24.62-0.9s-3.72-5.77-7.94-6.41c3.58,3.33-3.66,5.55-3.66,5.55s-7.66-3.6-14.41-3.84
		c8.9,2.84-1.13,5.02-1.13,5.02s-47.36,2.23-72.18,39.76c7.19,1.09,4.84,5.96,4.84,5.96s-13.34,16.83-14.11,24.82
		c1.11-0.24,3.9-3.01,4.54-1.89c-9.83,16.58-5.36,66.86,1.89,78.44c2.17-0.63,5.48-1.64,7.46-2.95
		c2.56,19.37,15.65,41.4,19.31,43.41c0.43-4.51,12.09-5.54,13.64-2.87c0.78,1.38,17.92,18.38,25.96,19.26
		c0.17-4.2,9.2-5.21,9.2-5.21s13.79,9,20.49,20.36c10.09-14.23,25.14-22.48,25.14-22.48s7.79,0.62,8.56,4.43
		c21.56-8.09,35.16-31.71,35.16-31.71s4.54-0.7,6.61,4.02c9.27-5.59,12.04-25.89,12.04-25.89s2.56,1.56,8.81,4.97
		C709.8,413.1,682.56,390.19,682.56,390.19z M613.52,454.85c-0.15,5.12-2.62,6.71-15.43,6.71s-15.71-1.73-15.56-7.75
		c-12.26,0.7-25.94,2.69-42.3,6.34c0.07-8.09-2.85-16.55,0.75-25.19c4.6-10.98,20.82-24.16,20.62-15.68
		c9.45-1.55,19.23-18.36,19.23-18.36s6.83,4.24,8.47,9.04c12.45-6.95,18.81-22.37,18.81-22.37s9.55,17.47,25.52,24.77
		c0.62-3.21,2.11-6.36,2.11-6.36c30.56,13,11.49,39.69,25.51,59.7C643.61,460.83,628.95,456.83,613.52,454.85z"/>
</g>
<g>
	<g>
		<path fill="#231F20" d="M615.5,600.16c0,0-0.23,0.36-0.54,0.36c-1.18,0-15.74,0-19.42,1.34c-1.58,0.58-2.04,1.33-2.45,3.93
			c-0.77,4.75-1.1,8.37-1.1,12.46c-0.16,5.03,0,10.23,1.82,15.12c0.62,1.72,2.67,2.08,4.31,2.23c2.7,0.29,3.4,0.37,6.46-0.15
			c0.63-0.08,0.63-0.36,0.63-0.88c0.07-0.67,0.77-19.95,0.77-19.95c0-0.3,0.09-0.51,0.48-0.51c0.24,0,8.63,0,8.88,0
			c0.31,0,0.31,0.21,0.4,0.44l-0.25,28.24c0,0.38-0.45,0.52-0.54,0.52h0.09c-7.62,0.45-19.9,0.38-26.29-0.15
			c-2.6-0.23-3.53-0.45-4.39-2.67c-3-7.72-3.77-15.95-3.77-27.96c0-3.71,0.77-11.42,1.87-15.94c0.79-3.41,2.12-3.41,5.9-3.64
			c8.8-0.58,19.09-0.5,28.62,0.15c0.4,0,0.46,0.08,0.4,0.45C617.31,593.85,616.07,598.38,615.5,600.16z"/>
		<path fill="#231F20" d="M616.24,791.27c-0.49,1.86-0.71,3.19-2.75,3.64c-4.9,0.96-23.05,1.33-29.19,0
			c-2.06-0.45-2.36-0.96-2.93-3.12c-3.05-11.43-3.75-33-0.15-44.78c0.5-1.41,1.11-1.56,2.29-1.79c3.93-0.74,26.27-0.97,30.75-0.07
			c1.98,0.36,2.3,0.59,2.83,2.38C620.87,759.9,618.99,778.97,616.24,791.27z M604.89,753.82c-2.04-0.73-8.4-0.8-10.84-0.15
			c-1.57,0.52-2.12,0.9-2.6,2.08c-2.5,5.86-3.37,23.96,0.72,29.81c0.31,0.44,0.81,0.9,1.41,1.11c2.46,0.74,7.32,0.9,10.3,0.15
			c1.01-0.22,1.34-0.45,1.83-1.34c3.19-6.07,3.99-23.43,1-30.03C606.33,754.49,605.99,754.19,604.89,753.82z"/>
	</g>
	<g>
		<path fill="#231F20" d="M700.28,718.01c-0.15,0.08-5.28,1.78-7.16,2.44c-0.3,0.09-0.71,0.09-0.93-0.15
			c-0.15-0.14-12.11-13.79-12.11-13.79c-0.8,0.16-1.27,0.08-5.41,0.82c-0.26,3.94-0.26,6.97-0.41,10.83
			c-0.07,0.08-0.24,0.53-0.46,0.53h-8.04c-0.38,0-0.61-0.37-0.61-0.59c0,0-0.94-49.01-0.94-49.32c0-0.37,0.53-0.44,0.94-0.44
			c11.56-0.58,24.85-0.8,31.6,0.3c1.2,0.14,1.75,0.81,2.21,2.67c1.64,7.19,2.36,19.8,0.71,27.95c-0.25,1.27-0.16,2.23-1.59,2.83
			c-2.25,0.96-4.79,1.56-7.53,2.15c3.93,5.26,6.37,8.16,9.99,13.13C700.69,717.63,700.6,717.86,700.28,718.01z M687.94,677.14
			c-0.23-0.36-0.63-0.74-1.11-0.81c-3.78-0.37-7.16,0.15-10.78,0.73c-0.38,0.07-0.53,0.3-0.53,0.45c-0.39,7.71-0.8,12.68-0.72,20.39
			c0,0.45,0.48,0.6,0.78,0.52c4.26-0.15,9.21-1.56,12.19-2.81c2.13-0.83,2.38-1.34,2.55-2.67
			C690.85,688.8,690.32,680.57,687.94,677.14z"/>
		<path fill="#231F20" d="M530.37,700.83c-0.55,1.77-0.71,1.92-2.61,2.82c-1.11,0.51-3.22,0.88-4.25,1.33l10.38,12.46
			c0.06,0,0.39,0.38,0,0.6c-0.29,0.14-7.78,2.22-8.27,2.29c-0.36,0.07-0.51-0.15-0.51-0.15l-11.9-13.65c0,0-3.13,0.37-5.04,0.37
			c-0.46,4-0.46,6.97-0.77,11.27c0,0-0.15,0.3-0.39,0.3h-8.5c-0.33,0-0.33-0.3-0.33-0.3c-0.39-10.6-0.39-39.31-0.79-49.83
			c0-0.15,0.17-0.36,0.57-0.36c0.39,0,9.69,0.06,10.07,0c0.39,0,0.45,0,0.45,0.36c0,0.29-0.45,29.52-0.45,29.52
			c4.95-0.23,8.17-0.37,12.02-2.3c1.11-0.59,1.81-0.96,2.22-2.52c1-4.45,2.27-10.31,2.73-24.7c0.1-0.36,0.47-0.36,0.47-0.36h9.91
			c0.41,0,0.56,0,0.56,0.44C534.83,679.47,532.42,694.53,530.37,700.83z"/>
	</g>
	<path fill="#231F20" d="M515.67,778.1c-0.96-0.11-1.68-0.41-2.23-0.91c-0.35-0.35-0.82-0.95-1.36-1.79
		c-0.53-0.85-0.93-1.42-1.27-1.73c-0.44-0.41-0.75-0.63-1.03-0.67l0.1-0.83c4.42-3.69,9.57-8.3,15.42-13.79
		c2.43-2.29,104.48-98.59,109.16-103.21c4.67-4.64,37.2-35.39,39.58-37.64c3.72-3.5,7.08-5.93,10.12-7.28
		c0.15,0.75,0.74,1.6,1.73,2.55c1.22,1.26,1.99,2.13,2.31,2.63c-7.84,7.6-13.72,13.24-17.66,16.95L533.5,761.6
		C529.56,765.29,523.64,770.79,515.67,778.1z"/>
	<path fill="#231F20" d="M510,615.6c0.11-0.89,0.42-1.59,0.96-2.09c0.38-0.35,1-0.78,1.91-1.28c0.89-0.5,1.5-0.9,1.82-1.19
		c0.43-0.4,0.67-0.73,0.69-0.98l0.88,0.08c3.93,4.19,8.82,9.04,14.66,14.54c2.43,2.3,104.55,98.51,109.45,102.92
		c4.92,4.42,37.55,35.09,39.92,37.33c3.72,3.51,6.28,6.68,7.71,9.52c-0.79,0.15-1.7,0.71-2.68,1.64c-1.35,1.15-2.28,1.87-2.81,2.17
		c-8.05-7.39-14.06-12.94-17.98-16.64L527.49,632.4C523.57,628.7,517.73,623.11,510,615.6z"/>
</g>
</svg>
